<svg width="610" height="267" viewBox="0 0 610 267" fill="none" xmlns="http://www.w3.org/2000/svg">
<path fill-rule="evenodd" clip-rule="evenodd" d="M277.757 -7.87629C329.315 -9.50017 382.344 -33.4427 428.049 -21.8363C474.394 -10.0674 459.808 26.2852 491.463 46.3929C522.082 65.843 594.207 68.6751 607.598 92.2167C620.81 115.446 576.159 137.074 555.52 159.012C538.048 177.585 522.773 196.53 494.99 211.915C467.798 226.974 433.065 237.84 396.395 247.132C358.88 256.638 320.12 266.216 277.757 266.962C234.89 267.716 196.037 257.187 154.869 251.383C106.979 244.631 43.8526 249.043 14.0187 229.778C-16.1108 210.322 12.6206 182.142 10.1 157.901C7.9928 137.635 -0.941383 118.259 0.31394 97.9768C1.77089 74.4375 -6.86055 48.9924 18.0943 28.7408C43.3221 8.26759 89.2044 -5.96849 136.643 -12.6581C182.472 -19.1208 230.106 -6.37544 277.757 -7.87629Z" fill="#FFB800"/>
</svg>
